# xmcd
#
# Track frame offsets: 
#        150
#        13028
#        29178
#        46501
#        62061
#        83137
#        135386
#
# Disc length: 3405 seconds
#
# Revision: 0
# Processed by: cddbd v1.5.2PL0 Copyright (c) Steve Scherf et al.
# Submitted via: ExactAudioCopy v0.95b3
#
DISCID=520d4b07
DTITLE=Jimi Hendrix  - In the Studio Reclamation 1967-1970 - Disc 04  
DTITLE=FLAC
DYEAR=1900
DGENRE=
TTITLE0=Lover Man
TTITLE1=Message To Love
TTITLE2=Izabella (take 2)
TTITLE3=Bleeding Heart (blues in C sharp)
TTITLE4=Izabella (take 1)
TTITLE5=Blue Suede Shoes
TTITLE6=Power of Soul (takes nos. 1 to 16)
EXTD=
EXTT0=
EXTT1=
EXTT2=
EXTT3=
EXTT4=
EXTT5=
EXTT6=
PLAYORDER=
